# Blender v2.78 (sub 0) OBJ File: 'circle_square_grid.blend'
# www.blender.org
mtllib circle_square_grid.mtl
o Plane
v 0.376909 0.302241 -0.500000
v 0.376909 0.868107 -0.500000
v -0.188958 0.302241 -0.500000
v -0.188958 0.868107 -0.500000
vn 0.0000 0.0000 1.0000
usemtl None
s off
f 1//1 2//1 4//1 3//1
o Grid
v 0.856827 -0.498402 -0.500000
v 0.856827 -0.428193 -0.500000
v 0.856827 -0.357985 -0.500000
v 0.856827 -0.287776 -0.500000
v 0.856827 -0.217567 -0.500000
v 0.856827 -0.147358 -0.500000
v 0.856827 -0.077150 -0.500000
v 0.856827 -0.006941 -0.500000
v 0.856827 0.063268 -0.500000
v 0.856827 0.133477 -0.500000
v 0.786618 -0.498402 -0.500000
v 0.786618 -0.428193 -0.500000
v 0.786618 -0.357985 -0.500000
v 0.786618 -0.287776 -0.500000
v 0.786618 -0.217567 -0.500000
v 0.786618 -0.147358 -0.500000
v 0.786618 -0.077150 -0.500000
v 0.786618 -0.006941 -0.500000
v 0.786618 0.063268 -0.500000
v 0.786618 0.133477 -0.500000
v 0.716409 -0.498402 -0.500000
v 0.716409 -0.428193 -0.500000
v 0.716409 -0.357985 -0.500000
v 0.716409 -0.217567 -0.500000
v 0.716409 -0.147358 -0.500000
v 0.716409 0.063268 -0.500000
v 0.716409 0.133477 -0.500000
v 0.646201 -0.498402 -0.500000
v 0.646201 -0.428193 -0.500000
v 0.646201 -0.357985 -0.500000
v 0.646201 -0.217567 -0.500000
v 0.646201 -0.147358 -0.500000
v 0.646201 -0.077150 -0.500000
v 0.646201 -0.006941 -0.500000
v 0.646201 0.063268 -0.500000
v 0.646201 0.133477 -0.500000
v 0.575992 -0.217567 -0.500000
v 0.575992 -0.147358 -0.500000
v 0.575992 -0.077150 -0.500000
v 0.575992 -0.006941 -0.500000
v 0.575992 0.063268 -0.500000
v 0.575992 0.133477 -0.500000
v 0.505783 -0.217567 -0.500000
v 0.505783 -0.147358 -0.500000
v 0.505783 -0.077150 -0.500000
v 0.505783 -0.006941 -0.500000
v 0.505783 0.063268 -0.500000
v 0.505783 0.133477 -0.500000
v 0.435574 -0.498402 -0.500000
v 0.435574 -0.428193 -0.500000
v 0.435574 -0.147358 -0.500000
v 0.435574 -0.077150 -0.500000
v 0.435574 -0.006941 -0.500000
v 0.435574 0.063268 -0.500000
v 0.435574 0.133477 -0.500000
v 0.365366 -0.498402 -0.500000
v 0.365366 -0.428193 -0.500000
v 0.365366 -0.357985 -0.500000
v 0.365366 -0.287776 -0.500000
v 0.365366 -0.217567 -0.500000
v 0.365366 -0.147358 -0.500000
v 0.365366 -0.077150 -0.500000
v 0.365366 -0.006941 -0.500000
v 0.365366 0.063268 -0.500000
v 0.365366 0.133477 -0.500000
v 0.295157 -0.498402 -0.500000
v 0.295157 -0.428193 -0.500000
v 0.295157 -0.357985 -0.500000
v 0.295157 -0.287776 -0.500000
v 0.295157 -0.217567 -0.500000
v 0.295157 -0.147358 -0.500000
v 0.295157 -0.077150 -0.500000
v 0.295157 -0.006941 -0.500000
v 0.295157 0.063268 -0.500000
v 0.295157 0.133477 -0.500000
v 0.224948 -0.498402 -0.500000
v 0.224948 -0.428193 -0.500000
v 0.224948 -0.357985 -0.500000
v 0.224948 -0.287776 -0.500000
v 0.224948 -0.217567 -0.500000
v 0.224948 -0.147358 -0.500000
v 0.224948 -0.077150 -0.500000
v 0.224948 -0.006941 -0.500000
v 0.224948 0.063268 -0.500000
v 0.224948 0.133477 -0.500000
vn 0.0000 0.0000 1.0000
usemtl None
s off
f 5//2 6//2 16//2 15//2
f 6//2 7//2 17//2 16//2
f 7//2 8//2 18//2 17//2
f 8//2 9//2 19//2 18//2
f 9//2 10//2 20//2 19//2
f 10//2 11//2 21//2 20//2
f 11//2 12//2 22//2 21//2
f 12//2 13//2 23//2 22//2
f 13//2 14//2 24//2 23//2
f 15//2 16//2 26//2 25//2
f 16//2 17//2 27//2 26//2
f 23//2 24//2 31//2 30//2
f 25//2 26//2 33//2 32//2
f 26//2 27//2 34//2 33//2
f 28//2 29//2 36//2 35//2
f 30//2 31//2 40//2 39//2
f 37//2 38//2 44//2 43//2
f 38//2 39//2 45//2 44//2
f 39//2 40//2 46//2 45//2
f 41//2 42//2 48//2 47//2
f 42//2 43//2 49//2 48//2
f 44//2 45//2 51//2 50//2
f 45//2 46//2 52//2 51//2
f 48//2 49//2 56//2 55//2
f 49//2 50//2 57//2 56//2
f 51//2 52//2 59//2 58//2
f 53//2 54//2 61//2 60//2
f 55//2 56//2 66//2 65//2
f 57//2 58//2 68//2 67//2
f 58//2 59//2 69//2 68//2
f 60//2 61//2 71//2 70//2
f 61//2 62//2 72//2 71//2
f 62//2 63//2 73//2 72//2
f 64//2 65//2 75//2 74//2
f 65//2 66//2 76//2 75//2
f 66//2 67//2 77//2 76//2
f 67//2 68//2 78//2 77//2
f 68//2 69//2 79//2 78//2
f 70//2 71//2 81//2 80//2
f 71//2 72//2 82//2 81//2
f 72//2 73//2 83//2 82//2
f 73//2 74//2 84//2 83//2
f 74//2 75//2 85//2 84//2
f 75//2 76//2 86//2 85//2
f 76//2 77//2 87//2 86//2
f 77//2 78//2 88//2 87//2
f 78//2 79//2 89//2 88//2
o Circle
v -0.708136 -0.258700 -0.500000
v -0.701157 -0.329557 -0.500000
v -0.680489 -0.397692 -0.500000
v -0.646925 -0.460485 -0.500000
v -0.601756 -0.515523 -0.500000
v -0.546718 -0.560692 -0.500000
v -0.483925 -0.594255 -0.500000
v -0.415791 -0.614924 -0.500000
v -0.344934 -0.621903 -0.500000
v -0.274076 -0.614924 -0.500000
v -0.205942 -0.594255 -0.500000
v -0.143149 -0.560692 -0.500000
v -0.088111 -0.515523 -0.500000
v -0.042942 -0.460485 -0.500000
v -0.009378 -0.397692 -0.500000
v 0.011290 -0.329557 -0.500000
v 0.018269 -0.258700 -0.500000
v 0.011290 -0.187843 -0.500000
v -0.009378 -0.119708 -0.500000
v -0.042942 -0.056915 -0.500000
v -0.088111 -0.001877 -0.500000
v -0.143149 0.043292 -0.500000
v -0.205942 0.076855 -0.500000
v -0.274077 0.097524 -0.500000
v -0.344934 0.104502 -0.500000
v -0.415791 0.097523 -0.500000
v -0.483925 0.076855 -0.500000
v -0.546718 0.043291 -0.500000
v -0.601757 -0.001878 -0.500000
v -0.646926 -0.056916 -0.500000
v -0.680489 -0.119709 -0.500000
v -0.701157 -0.187843 -0.500000
l 91 90
l 92 91
l 93 92
l 94 93
l 95 94
l 96 95
l 97 96
l 98 97
l 99 98
l 100 99
l 101 100
l 102 101
l 103 102
l 104 103
l 105 104
l 106 105
l 107 106
l 108 107
l 109 108
l 110 109
l 111 110
l 112 111
l 113 112
l 114 113
l 115 114
l 116 115
l 117 116
l 118 117
l 119 118
l 120 119
l 121 120
l 90 121
